<mxfile host="app.diagrams.net" agent="Mozilla/5.0 (Windows NT 10.0; Win64; x64) AppleWebKit/537.36 (KHTML, like Gecko) Chrome/131.0.0.0 Safari/537.36" version="26.0.2">
  <diagram name="Page-1" id="dy3AYuYquXFv7Zg-IKuu">
    <mxGraphModel dx="2265" dy="845" grid="1" gridSize="10" guides="1" tooltips="1" connect="1" arrows="1" fold="1" page="1" pageScale="1" pageWidth="850" pageHeight="1100" math="0" shadow="0">
      <root>
        <mxCell id="0" />
        <mxCell id="1" parent="0" />
        <mxCell id="XBORrCu2Ib6cJD6BhT8c-15" style="edgeStyle=orthogonalEdgeStyle;rounded=0;orthogonalLoop=1;jettySize=auto;html=1;entryX=0.5;entryY=0;entryDx=0;entryDy=0;" parent="1" source="XBORrCu2Ib6cJD6BhT8c-2" target="XBORrCu2Ib6cJD6BhT8c-10" edge="1">
          <mxGeometry relative="1" as="geometry" />
        </mxCell>
        <mxCell id="XBORrCu2Ib6cJD6BhT8c-36" style="edgeStyle=orthogonalEdgeStyle;rounded=0;orthogonalLoop=1;jettySize=auto;html=1;" parent="1" source="XBORrCu2Ib6cJD6BhT8c-2" target="XBORrCu2Ib6cJD6BhT8c-16" edge="1">
          <mxGeometry relative="1" as="geometry" />
        </mxCell>
        <mxCell id="XBORrCu2Ib6cJD6BhT8c-37" style="edgeStyle=orthogonalEdgeStyle;rounded=0;orthogonalLoop=1;jettySize=auto;html=1;entryX=0.5;entryY=0;entryDx=0;entryDy=0;" parent="1" source="XBORrCu2Ib6cJD6BhT8c-2" target="XBORrCu2Ib6cJD6BhT8c-21" edge="1">
          <mxGeometry relative="1" as="geometry">
            <Array as="points">
              <mxPoint x="440" y="330" />
              <mxPoint x="440" y="330" />
            </Array>
          </mxGeometry>
        </mxCell>
        <mxCell id="XBORrCu2Ib6cJD6BhT8c-38" style="edgeStyle=orthogonalEdgeStyle;rounded=0;orthogonalLoop=1;jettySize=auto;html=1;entryX=0.5;entryY=0;entryDx=0;entryDy=0;" parent="1" source="XBORrCu2Ib6cJD6BhT8c-2" target="XBORrCu2Ib6cJD6BhT8c-26" edge="1">
          <mxGeometry relative="1" as="geometry">
            <Array as="points">
              <mxPoint x="460" y="280" />
              <mxPoint x="470" y="280" />
            </Array>
          </mxGeometry>
        </mxCell>
        <mxCell id="XBORrCu2Ib6cJD6BhT8c-2" value="&lt;div style=&quot;text-align: start;&quot;&gt;&lt;span style=&quot;background-color: transparent; color: light-dark(rgb(0, 0, 0), rgb(255, 255, 255)); font-size: 14px; white-space-collapse: preserve;&quot;&gt;&lt;font face=&quot;Nunito Sans, sans-serif&quot;&gt;&lt;b&gt;Member&lt;/b&gt;&lt;/font&gt;&lt;/span&gt;&lt;/div&gt;" style="swimlane;fontStyle=0;childLayout=stackLayout;horizontal=1;startSize=30;horizontalStack=0;resizeParent=1;resizeParentMax=0;resizeLast=0;collapsible=1;marginBottom=0;whiteSpace=wrap;html=1;fillColor=#FFFF00;" parent="1" vertex="1">
          <mxGeometry x="355" y="120" width="140" height="180" as="geometry" />
        </mxCell>
        <mxCell id="XBORrCu2Ib6cJD6BhT8c-3" value="#id &lt;b&gt;&lt;font color=&quot;#ff0000&quot;&gt;int&lt;/font&gt;&lt;/b&gt;" style="text;strokeColor=none;fillColor=none;align=left;verticalAlign=middle;spacingLeft=4;spacingRight=4;overflow=hidden;points=[[0,0.5],[1,0.5]];portConstraint=eastwest;rotatable=0;whiteSpace=wrap;html=1;" parent="XBORrCu2Ib6cJD6BhT8c-2" vertex="1">
          <mxGeometry y="30" width="140" height="30" as="geometry" />
        </mxCell>
        <mxCell id="XBORrCu2Ib6cJD6BhT8c-4" value="#name &lt;font color=&quot;#ff0000&quot;&gt;&lt;b&gt;string&lt;/b&gt;&lt;/font&gt;" style="text;strokeColor=none;fillColor=none;align=left;verticalAlign=middle;spacingLeft=4;spacingRight=4;overflow=hidden;points=[[0,0.5],[1,0.5]];portConstraint=eastwest;rotatable=0;whiteSpace=wrap;html=1;" parent="XBORrCu2Ib6cJD6BhT8c-2" vertex="1">
          <mxGeometry y="60" width="140" height="30" as="geometry" />
        </mxCell>
        <mxCell id="XBORrCu2Ib6cJD6BhT8c-5" value="#email&amp;nbsp;&lt;b style=&quot;color: rgb(255, 0, 0);&quot;&gt;string&lt;/b&gt;" style="text;strokeColor=none;fillColor=none;align=left;verticalAlign=middle;spacingLeft=4;spacingRight=4;overflow=hidden;points=[[0,0.5],[1,0.5]];portConstraint=eastwest;rotatable=0;whiteSpace=wrap;html=1;" parent="XBORrCu2Ib6cJD6BhT8c-2" vertex="1">
          <mxGeometry y="90" width="140" height="30" as="geometry" />
        </mxCell>
        <mxCell id="XBORrCu2Ib6cJD6BhT8c-6" value="#password&amp;nbsp;&lt;b style=&quot;color: rgb(255, 0, 0);&quot;&gt;string&lt;/b&gt;" style="text;strokeColor=none;fillColor=none;align=left;verticalAlign=middle;spacingLeft=4;spacingRight=4;overflow=hidden;points=[[0,0.5],[1,0.5]];portConstraint=eastwest;rotatable=0;whiteSpace=wrap;html=1;" parent="XBORrCu2Ib6cJD6BhT8c-2" vertex="1">
          <mxGeometry y="120" width="140" height="30" as="geometry" />
        </mxCell>
        <mxCell id="XBORrCu2Ib6cJD6BhT8c-54" value="#login" style="text;strokeColor=none;fillColor=#3333FF;align=left;verticalAlign=middle;spacingLeft=4;spacingRight=4;overflow=hidden;points=[[0,0.5],[1,0.5]];portConstraint=eastwest;rotatable=0;whiteSpace=wrap;html=1;" parent="XBORrCu2Ib6cJD6BhT8c-2" vertex="1">
          <mxGeometry y="150" width="140" height="30" as="geometry" />
        </mxCell>
        <mxCell id="XBORrCu2Ib6cJD6BhT8c-10" value="&lt;span style=&quot;font-family: &amp;quot;Nunito Sans&amp;quot;, sans-serif; font-size: 14px; font-weight: 700; text-align: start; white-space-collapse: preserve;&quot;&gt;Role&lt;/span&gt;" style="swimlane;fontStyle=0;childLayout=stackLayout;horizontal=1;startSize=30;horizontalStack=0;resizeParent=1;resizeParentMax=0;resizeLast=0;collapsible=1;marginBottom=0;whiteSpace=wrap;html=1;fillColor=#FFFF00;" parent="1" vertex="1">
          <mxGeometry x="600" y="80" width="140" height="90" as="geometry" />
        </mxCell>
        <mxCell id="XBORrCu2Ib6cJD6BhT8c-11" value="-id&amp;nbsp;&lt;b&gt;&lt;font&gt;int&lt;/font&gt;&lt;/b&gt;" style="text;strokeColor=none;fillColor=none;align=left;verticalAlign=middle;spacingLeft=4;spacingRight=4;overflow=hidden;points=[[0,0.5],[1,0.5]];portConstraint=eastwest;rotatable=0;whiteSpace=wrap;html=1;" parent="XBORrCu2Ib6cJD6BhT8c-10" vertex="1">
          <mxGeometry y="30" width="140" height="30" as="geometry" />
        </mxCell>
        <mxCell id="XBORrCu2Ib6cJD6BhT8c-12" value="-role&amp;nbsp;&lt;b style=&quot;color: rgb(255, 0, 0);&quot;&gt;string&lt;/b&gt;" style="text;strokeColor=none;fillColor=none;align=left;verticalAlign=middle;spacingLeft=4;spacingRight=4;overflow=hidden;points=[[0,0.5],[1,0.5]];portConstraint=eastwest;rotatable=0;whiteSpace=wrap;html=1;" parent="XBORrCu2Ib6cJD6BhT8c-10" vertex="1">
          <mxGeometry y="60" width="140" height="30" as="geometry" />
        </mxCell>
        <mxCell id="XBORrCu2Ib6cJD6BhT8c-16" value="&lt;div style=&quot;text-align: start;&quot;&gt;&lt;span style=&quot;background-color: transparent; color: light-dark(rgb(0, 0, 0), rgb(255, 255, 255)); font-size: 14px; white-space-collapse: preserve;&quot;&gt;&lt;font face=&quot;Nunito Sans, sans-serif&quot;&gt;&lt;b&gt;Admin&lt;/b&gt;&lt;/font&gt;&lt;/span&gt;&lt;/div&gt;" style="swimlane;fontStyle=0;childLayout=stackLayout;horizontal=1;startSize=30;horizontalStack=0;resizeParent=1;resizeParentMax=0;resizeLast=0;collapsible=1;marginBottom=0;whiteSpace=wrap;html=1;fillColor=#FFFF00;" parent="1" vertex="1">
          <mxGeometry x="150" y="350" width="140" height="180" as="geometry" />
        </mxCell>
        <mxCell id="XBORrCu2Ib6cJD6BhT8c-17" value="&lt;span style=&quot;text-align: center;&quot;&gt;+ addoffers();&lt;/span&gt;" style="text;strokeColor=none;fillColor=#3333FF;align=left;verticalAlign=middle;spacingLeft=4;spacingRight=4;overflow=hidden;points=[[0,0.5],[1,0.5]];portConstraint=eastwest;rotatable=0;whiteSpace=wrap;html=1;" parent="XBORrCu2Ib6cJD6BhT8c-16" vertex="1">
          <mxGeometry y="30" width="140" height="30" as="geometry" />
        </mxCell>
        <mxCell id="XBORrCu2Ib6cJD6BhT8c-18" value="&lt;span style=&quot;text-align: center;&quot;&gt;+ update offers();&lt;/span&gt;" style="text;strokeColor=none;fillColor=#3333FF;align=left;verticalAlign=middle;spacingLeft=4;spacingRight=4;overflow=hidden;points=[[0,0.5],[1,0.5]];portConstraint=eastwest;rotatable=0;whiteSpace=wrap;html=1;" parent="XBORrCu2Ib6cJD6BhT8c-16" vertex="1">
          <mxGeometry y="60" width="140" height="30" as="geometry" />
        </mxCell>
        <mxCell id="XBORrCu2Ib6cJD6BhT8c-19" value="&lt;span style=&quot;text-align: center;&quot;&gt;+ deleteoffers();&lt;/span&gt;" style="text;strokeColor=none;fillColor=#3333FF;align=left;verticalAlign=middle;spacingLeft=4;spacingRight=4;overflow=hidden;points=[[0,0.5],[1,0.5]];portConstraint=eastwest;rotatable=0;whiteSpace=wrap;html=1;" parent="XBORrCu2Ib6cJD6BhT8c-16" vertex="1">
          <mxGeometry y="90" width="140" height="30" as="geometry" />
        </mxCell>
        <mxCell id="XBORrCu2Ib6cJD6BhT8c-20" value="&lt;span style=&quot;text-align: center;&quot;&gt;+ archiveoffers();&lt;/span&gt;" style="text;strokeColor=none;fillColor=#3333FF;align=left;verticalAlign=middle;spacingLeft=4;spacingRight=4;overflow=hidden;points=[[0,0.5],[1,0.5]];portConstraint=eastwest;rotatable=0;whiteSpace=wrap;html=1;" parent="XBORrCu2Ib6cJD6BhT8c-16" vertex="1">
          <mxGeometry y="120" width="140" height="30" as="geometry" />
        </mxCell>
        <mxCell id="XBORrCu2Ib6cJD6BhT8c-55" value="&lt;span style=&quot;text-align: center;&quot;&gt;+ consultStatistics();&lt;/span&gt;" style="text;strokeColor=none;fillColor=#3333FF;align=left;verticalAlign=middle;spacingLeft=4;spacingRight=4;overflow=hidden;points=[[0,0.5],[1,0.5]];portConstraint=eastwest;rotatable=0;whiteSpace=wrap;html=1;" parent="XBORrCu2Ib6cJD6BhT8c-16" vertex="1">
          <mxGeometry y="150" width="140" height="30" as="geometry" />
        </mxCell>
        <mxCell id="XBORrCu2Ib6cJD6BhT8c-21" value="&lt;div style=&quot;text-align: start;&quot;&gt;&lt;span style=&quot;background-color: transparent; font-size: 14px; white-space-collapse: preserve;&quot;&gt;&lt;font face=&quot;Nunito Sans, sans-serif&quot;&gt;&lt;b&gt;Recruiter&lt;/b&gt;&lt;/font&gt;&lt;/span&gt;&lt;/div&gt;" style="swimlane;fontStyle=0;childLayout=stackLayout;horizontal=1;startSize=30;horizontalStack=0;resizeParent=1;resizeParentMax=0;resizeLast=0;collapsible=1;marginBottom=0;whiteSpace=wrap;html=1;fillColor=#FFFF00;" parent="1" vertex="1">
          <mxGeometry x="370" y="340" width="140" height="180" as="geometry" />
        </mxCell>
        <mxCell id="XBORrCu2Ib6cJD6BhT8c-48" value="&lt;span style=&quot;text-align: center;&quot;&gt;+ addoffers();&lt;/span&gt;" style="text;strokeColor=none;fillColor=#3333FF;align=left;verticalAlign=middle;spacingLeft=4;spacingRight=4;overflow=hidden;points=[[0,0.5],[1,0.5]];portConstraint=eastwest;rotatable=0;whiteSpace=wrap;html=1;" parent="XBORrCu2Ib6cJD6BhT8c-21" vertex="1">
          <mxGeometry y="30" width="140" height="30" as="geometry" />
        </mxCell>
        <mxCell id="XBORrCu2Ib6cJD6BhT8c-49" value="&lt;span style=&quot;text-align: center;&quot;&gt;+ update offers();&lt;/span&gt;" style="text;strokeColor=none;fillColor=#3333FF;align=left;verticalAlign=middle;spacingLeft=4;spacingRight=4;overflow=hidden;points=[[0,0.5],[1,0.5]];portConstraint=eastwest;rotatable=0;whiteSpace=wrap;html=1;" parent="XBORrCu2Ib6cJD6BhT8c-21" vertex="1">
          <mxGeometry y="60" width="140" height="30" as="geometry" />
        </mxCell>
        <mxCell id="XBORrCu2Ib6cJD6BhT8c-50" value="&lt;span style=&quot;text-align: center;&quot;&gt;+ deleteoffers();&lt;/span&gt;" style="text;strokeColor=none;fillColor=#3333FF;align=left;verticalAlign=middle;spacingLeft=4;spacingRight=4;overflow=hidden;points=[[0,0.5],[1,0.5]];portConstraint=eastwest;rotatable=0;whiteSpace=wrap;html=1;" parent="XBORrCu2Ib6cJD6BhT8c-21" vertex="1">
          <mxGeometry y="90" width="140" height="30" as="geometry" />
        </mxCell>
        <mxCell id="ZcthXnaWJmEX7Fqt3ZfZ-23" value="&lt;span style=&quot;text-align: center;&quot;&gt;+ deleteoffers();&lt;/span&gt;" style="text;strokeColor=none;fillColor=#3333FF;align=left;verticalAlign=middle;spacingLeft=4;spacingRight=4;overflow=hidden;points=[[0,0.5],[1,0.5]];portConstraint=eastwest;rotatable=0;whiteSpace=wrap;html=1;" parent="XBORrCu2Ib6cJD6BhT8c-21" vertex="1">
          <mxGeometry y="120" width="140" height="30" as="geometry" />
        </mxCell>
        <mxCell id="ZcthXnaWJmEX7Fqt3ZfZ-30" value="&lt;span style=&quot;text-align: center;&quot;&gt;+ showTheirOffers();&lt;/span&gt;" style="text;strokeColor=none;fillColor=#3333FF;align=left;verticalAlign=middle;spacingLeft=4;spacingRight=4;overflow=hidden;points=[[0,0.5],[1,0.5]];portConstraint=eastwest;rotatable=0;whiteSpace=wrap;html=1;" parent="XBORrCu2Ib6cJD6BhT8c-21" vertex="1">
          <mxGeometry y="150" width="140" height="30" as="geometry" />
        </mxCell>
        <mxCell id="XBORrCu2Ib6cJD6BhT8c-26" value="&lt;b style=&quot;text-wrap-mode: nowrap;&quot;&gt;&lt;font style=&quot;font-size: 14px;&quot;&gt;Candidate&lt;/font&gt;&lt;/b&gt;" style="swimlane;fontStyle=0;childLayout=stackLayout;horizontal=1;startSize=30;horizontalStack=0;resizeParent=1;resizeParentMax=0;resizeLast=0;collapsible=1;marginBottom=0;whiteSpace=wrap;html=1;fillColor=#FFFF00;" parent="1" vertex="1">
          <mxGeometry x="610" y="360" width="140" height="120" as="geometry" />
        </mxCell>
        <mxCell id="XBORrCu2Ib6cJD6BhT8c-51" value="&lt;span style=&quot;text-align: center;&quot;&gt;+ category&lt;/span&gt;&lt;span style=&quot;font-family: &amp;quot;Nunito Sans&amp;quot;, sans-serif; font-size: 14px; white-space-collapse: preserve;&quot;&gt;Search&lt;/span&gt;&lt;span style=&quot;text-align: center;&quot;&gt;();&lt;/span&gt;" style="text;strokeColor=none;fillColor=#3333FF;align=left;verticalAlign=middle;spacingLeft=4;spacingRight=4;overflow=hidden;points=[[0,0.5],[1,0.5]];portConstraint=eastwest;rotatable=0;whiteSpace=wrap;html=1;" parent="XBORrCu2Ib6cJD6BhT8c-26" vertex="1">
          <mxGeometry y="30" width="140" height="30" as="geometry" />
        </mxCell>
        <mxCell id="ZcthXnaWJmEX7Fqt3ZfZ-1" value="&lt;span style=&quot;text-align: center;&quot;&gt;+ tag&lt;/span&gt;&lt;span style=&quot;font-family: &amp;quot;Nunito Sans&amp;quot;, sans-serif; font-size: 14px; white-space-collapse: preserve;&quot;&gt;Search&lt;/span&gt;&lt;span style=&quot;text-align: center;&quot;&gt;();&lt;/span&gt;" style="text;strokeColor=none;fillColor=#3333FF;align=left;verticalAlign=middle;spacingLeft=4;spacingRight=4;overflow=hidden;points=[[0,0.5],[1,0.5]];portConstraint=eastwest;rotatable=0;whiteSpace=wrap;html=1;" parent="XBORrCu2Ib6cJD6BhT8c-26" vertex="1">
          <mxGeometry y="60" width="140" height="30" as="geometry" />
        </mxCell>
        <mxCell id="ZcthXnaWJmEX7Fqt3ZfZ-2" value="&lt;span style=&quot;text-align: center;&quot;&gt;+ keyword&lt;/span&gt;&lt;span style=&quot;font-family: &amp;quot;Nunito Sans&amp;quot;, sans-serif; font-size: 14px; white-space-collapse: preserve;&quot;&gt;Search&lt;/span&gt;&lt;span style=&quot;text-align: center;&quot;&gt;();&lt;/span&gt;" style="text;strokeColor=none;fillColor=#3333FF;align=left;verticalAlign=middle;spacingLeft=4;spacingRight=4;overflow=hidden;points=[[0,0.5],[1,0.5]];portConstraint=eastwest;rotatable=0;whiteSpace=wrap;html=1;" parent="XBORrCu2Ib6cJD6BhT8c-26" vertex="1">
          <mxGeometry y="90" width="140" height="30" as="geometry" />
        </mxCell>
        <mxCell id="H3dzLe5ufF6b7okT9OPx-7" value="&lt;div style=&quot;text-align: start;&quot;&gt;&lt;font face=&quot;Nunito Sans, sans-serif&quot;&gt;&lt;span style=&quot;font-size: 14px; white-space-collapse: preserve;&quot;&gt;&lt;b&gt;Offer&lt;/b&gt;&lt;/span&gt;&lt;/font&gt;&lt;/div&gt;" style="swimlane;fontStyle=0;childLayout=stackLayout;horizontal=1;startSize=30;horizontalStack=0;resizeParent=1;resizeParentMax=0;resizeLast=0;collapsible=1;marginBottom=0;whiteSpace=wrap;html=1;fillColor=#FFFF00;" parent="1" vertex="1">
          <mxGeometry x="370" y="580" width="140" height="180" as="geometry" />
        </mxCell>
        <mxCell id="H3dzLe5ufF6b7okT9OPx-8" value="- id&amp;nbsp;&lt;b&gt;&lt;font&gt;int&lt;/font&gt;&lt;/b&gt;" style="text;strokeColor=none;fillColor=none;align=left;verticalAlign=middle;spacingLeft=4;spacingRight=4;overflow=hidden;points=[[0,0.5],[1,0.5]];portConstraint=eastwest;rotatable=0;whiteSpace=wrap;html=1;" parent="H3dzLe5ufF6b7okT9OPx-7" vertex="1">
          <mxGeometry y="30" width="140" height="30" as="geometry" />
        </mxCell>
        <mxCell id="H3dzLe5ufF6b7okT9OPx-9" value="- title&amp;nbsp;&lt;b style=&quot;color: rgb(255, 0, 0);&quot;&gt;string&lt;/b&gt;" style="text;strokeColor=none;fillColor=none;align=left;verticalAlign=middle;spacingLeft=4;spacingRight=4;overflow=hidden;points=[[0,0.5],[1,0.5]];portConstraint=eastwest;rotatable=0;whiteSpace=wrap;html=1;" parent="H3dzLe5ufF6b7okT9OPx-7" vertex="1">
          <mxGeometry y="60" width="140" height="30" as="geometry" />
        </mxCell>
        <mxCell id="H3dzLe5ufF6b7okT9OPx-10" value="-&amp;nbsp; salary&amp;nbsp;&lt;b style=&quot;color: rgb(255, 0, 0);&quot;&gt;string&lt;/b&gt;" style="text;strokeColor=none;fillColor=none;align=left;verticalAlign=middle;spacingLeft=4;spacingRight=4;overflow=hidden;points=[[0,0.5],[1,0.5]];portConstraint=eastwest;rotatable=0;whiteSpace=wrap;html=1;" parent="H3dzLe5ufF6b7okT9OPx-7" vertex="1">
          <mxGeometry y="90" width="140" height="30" as="geometry" />
        </mxCell>
        <mxCell id="H3dzLe5ufF6b7okT9OPx-11" value="- place&amp;nbsp;&lt;b style=&quot;color: rgb(255, 0, 0);&quot;&gt;string&lt;/b&gt;" style="text;strokeColor=none;fillColor=none;align=left;verticalAlign=middle;spacingLeft=4;spacingRight=4;overflow=hidden;points=[[0,0.5],[1,0.5]];portConstraint=eastwest;rotatable=0;whiteSpace=wrap;html=1;" parent="H3dzLe5ufF6b7okT9OPx-7" vertex="1">
          <mxGeometry y="120" width="140" height="30" as="geometry" />
        </mxCell>
        <mxCell id="H3dzLe5ufF6b7okT9OPx-12" value="+ verificationcategory()" style="text;strokeColor=none;fillColor=#0000CC;align=left;verticalAlign=middle;spacingLeft=4;spacingRight=4;overflow=hidden;points=[[0,0.5],[1,0.5]];portConstraint=eastwest;rotatable=0;whiteSpace=wrap;html=1;" parent="H3dzLe5ufF6b7okT9OPx-7" vertex="1">
          <mxGeometry y="150" width="140" height="30" as="geometry" />
        </mxCell>
        <mxCell id="H3dzLe5ufF6b7okT9OPx-13" value="&lt;div style=&quot;text-align: start;&quot;&gt;&lt;font face=&quot;Nunito Sans, sans-serif&quot;&gt;&lt;span style=&quot;font-size: 14px; white-space-collapse: preserve;&quot;&gt;&lt;b&gt;Category&lt;/b&gt;&lt;/span&gt;&lt;/font&gt;&lt;/div&gt;" style="swimlane;fontStyle=0;childLayout=stackLayout;horizontal=1;startSize=30;horizontalStack=0;resizeParent=1;resizeParentMax=0;resizeLast=0;collapsible=1;marginBottom=0;whiteSpace=wrap;html=1;fillColor=#FFFF00;" parent="1" vertex="1">
          <mxGeometry x="190" y="820" width="140" height="120" as="geometry" />
        </mxCell>
        <mxCell id="H3dzLe5ufF6b7okT9OPx-14" value="- id&amp;nbsp;&lt;b&gt;&lt;font&gt;int&lt;/font&gt;&lt;/b&gt;" style="text;strokeColor=none;fillColor=none;align=left;verticalAlign=middle;spacingLeft=4;spacingRight=4;overflow=hidden;points=[[0,0.5],[1,0.5]];portConstraint=eastwest;rotatable=0;whiteSpace=wrap;html=1;" parent="H3dzLe5ufF6b7okT9OPx-13" vertex="1">
          <mxGeometry y="30" width="140" height="30" as="geometry" />
        </mxCell>
        <mxCell id="H3dzLe5ufF6b7okT9OPx-15" value="- name&amp;nbsp;&lt;b style=&quot;color: rgb(255, 0, 0);&quot;&gt;string&lt;/b&gt;" style="text;strokeColor=none;fillColor=none;align=left;verticalAlign=middle;spacingLeft=4;spacingRight=4;overflow=hidden;points=[[0,0.5],[1,0.5]];portConstraint=eastwest;rotatable=0;whiteSpace=wrap;html=1;" parent="H3dzLe5ufF6b7okT9OPx-13" vertex="1">
          <mxGeometry y="60" width="140" height="30" as="geometry" />
        </mxCell>
        <mxCell id="ZcthXnaWJmEX7Fqt3ZfZ-33" value="+ AssociatedOffers" style="text;strokeColor=none;fillColor=#0000FF;align=left;verticalAlign=middle;spacingLeft=4;spacingRight=4;overflow=hidden;points=[[0,0.5],[1,0.5]];portConstraint=eastwest;rotatable=0;whiteSpace=wrap;html=1;" parent="H3dzLe5ufF6b7okT9OPx-13" vertex="1">
          <mxGeometry y="90" width="140" height="30" as="geometry" />
        </mxCell>
        <mxCell id="ZcthXnaWJmEX7Fqt3ZfZ-4" value="" style="endArrow=open;html=1;endSize=12;startArrow=diamondThin;startSize=14;startFill=0;edgeStyle=orthogonalEdgeStyle;rounded=0;" parent="1" source="XBORrCu2Ib6cJD6BhT8c-21" target="H3dzLe5ufF6b7okT9OPx-7" edge="1">
          <mxGeometry relative="1" as="geometry">
            <mxPoint x="350" y="740" as="sourcePoint" />
            <mxPoint x="510" y="740" as="targetPoint" />
            <Array as="points" />
          </mxGeometry>
        </mxCell>
        <mxCell id="ZcthXnaWJmEX7Fqt3ZfZ-5" value="0..n" style="edgeLabel;resizable=0;html=1;align=left;verticalAlign=top;" parent="ZcthXnaWJmEX7Fqt3ZfZ-4" connectable="0" vertex="1">
          <mxGeometry x="-1" relative="1" as="geometry" />
        </mxCell>
        <mxCell id="ZcthXnaWJmEX7Fqt3ZfZ-6" value="1" style="edgeLabel;resizable=0;html=1;align=right;verticalAlign=top;" parent="ZcthXnaWJmEX7Fqt3ZfZ-4" connectable="0" vertex="1">
          <mxGeometry x="1" relative="1" as="geometry" />
        </mxCell>
        <mxCell id="ZcthXnaWJmEX7Fqt3ZfZ-8" value="" style="endArrow=open;html=1;endSize=12;startArrow=diamondThin;startSize=14;startFill=0;edgeStyle=orthogonalEdgeStyle;rounded=0;exitX=0.5;exitY=1;exitDx=0;exitDy=0;entryX=0.5;entryY=0;entryDx=0;entryDy=0;" parent="1" source="XBORrCu2Ib6cJD6BhT8c-16" target="H3dzLe5ufF6b7okT9OPx-7" edge="1">
          <mxGeometry relative="1" as="geometry">
            <mxPoint x="450" y="490" as="sourcePoint" />
            <mxPoint x="450" y="590" as="targetPoint" />
            <Array as="points">
              <mxPoint x="220" y="560" />
              <mxPoint x="440" y="560" />
            </Array>
          </mxGeometry>
        </mxCell>
        <mxCell id="ZcthXnaWJmEX7Fqt3ZfZ-9" value="0..n" style="edgeLabel;resizable=0;html=1;align=left;verticalAlign=top;" parent="ZcthXnaWJmEX7Fqt3ZfZ-8" connectable="0" vertex="1">
          <mxGeometry x="-1" relative="1" as="geometry" />
        </mxCell>
        <mxCell id="ZcthXnaWJmEX7Fqt3ZfZ-10" value="1" style="edgeLabel;resizable=0;html=1;align=right;verticalAlign=top;" parent="ZcthXnaWJmEX7Fqt3ZfZ-8" connectable="0" vertex="1">
          <mxGeometry x="1" relative="1" as="geometry" />
        </mxCell>
        <mxCell id="ZcthXnaWJmEX7Fqt3ZfZ-11" value="" style="endArrow=open;html=1;endSize=12;startArrow=diamondThin;startSize=14;startFill=0;edgeStyle=orthogonalEdgeStyle;rounded=0;exitX=0.5;exitY=1;exitDx=0;exitDy=0;entryX=1;entryY=0;entryDx=0;entryDy=0;" parent="1" source="XBORrCu2Ib6cJD6BhT8c-26" target="H3dzLe5ufF6b7okT9OPx-7" edge="1">
          <mxGeometry relative="1" as="geometry">
            <mxPoint x="230" y="540" as="sourcePoint" />
            <mxPoint x="450" y="590" as="targetPoint" />
            <Array as="points">
              <mxPoint x="680" y="500" />
              <mxPoint x="560" y="500" />
              <mxPoint x="560" y="550" />
              <mxPoint x="510" y="550" />
            </Array>
          </mxGeometry>
        </mxCell>
        <mxCell id="ZcthXnaWJmEX7Fqt3ZfZ-12" value="0..n" style="edgeLabel;resizable=0;html=1;align=left;verticalAlign=top;" parent="ZcthXnaWJmEX7Fqt3ZfZ-11" connectable="0" vertex="1">
          <mxGeometry x="-1" relative="1" as="geometry" />
        </mxCell>
        <mxCell id="ZcthXnaWJmEX7Fqt3ZfZ-13" value="1.n" style="edgeLabel;resizable=0;html=1;align=right;verticalAlign=top;" parent="ZcthXnaWJmEX7Fqt3ZfZ-11" connectable="0" vertex="1">
          <mxGeometry x="1" relative="1" as="geometry" />
        </mxCell>
        <mxCell id="ZcthXnaWJmEX7Fqt3ZfZ-14" value="" style="endArrow=none;dashed=1;html=1;rounded=0;exitX=0.5;exitY=0;exitDx=0;exitDy=0;" parent="1" source="H3dzLe5ufF6b7okT9OPx-13" target="H3dzLe5ufF6b7okT9OPx-7" edge="1">
          <mxGeometry width="50" height="50" relative="1" as="geometry">
            <mxPoint x="310" y="790" as="sourcePoint" />
            <mxPoint x="360" y="740" as="targetPoint" />
          </mxGeometry>
        </mxCell>
        <mxCell id="ZcthXnaWJmEX7Fqt3ZfZ-17" value="&lt;font style=&quot;font-size: 6px;&quot;&gt;1.n&lt;/font&gt;" style="text;html=1;align=center;verticalAlign=middle;whiteSpace=wrap;rounded=0;" parent="1" vertex="1">
          <mxGeometry x="265" y="799" width="30" height="30" as="geometry" />
        </mxCell>
        <mxCell id="ZcthXnaWJmEX7Fqt3ZfZ-21" value="&lt;font style=&quot;font-size: 6px;&quot;&gt;1.n&lt;/font&gt;" style="text;html=1;align=center;verticalAlign=middle;whiteSpace=wrap;rounded=0;" parent="1" vertex="1">
          <mxGeometry x="503" y="720" width="30" height="30" as="geometry" />
        </mxCell>
        <mxCell id="ZcthXnaWJmEX7Fqt3ZfZ-24" value="&lt;div style=&quot;text-align: start;&quot;&gt;&lt;font face=&quot;Nunito Sans, sans-serif&quot;&gt;&lt;span style=&quot;font-size: 14px; white-space-collapse: preserve;&quot;&gt;&lt;b&gt;Tags&lt;/b&gt;&lt;/span&gt;&lt;/font&gt;&lt;/div&gt;" style="swimlane;fontStyle=0;childLayout=stackLayout;horizontal=1;startSize=30;horizontalStack=0;resizeParent=1;resizeParentMax=0;resizeLast=0;collapsible=1;marginBottom=0;whiteSpace=wrap;html=1;fillColor=#FFFF00;" parent="1" vertex="1">
          <mxGeometry x="560" y="810" width="140" height="120" as="geometry" />
        </mxCell>
        <mxCell id="ZcthXnaWJmEX7Fqt3ZfZ-25" value="- id&amp;nbsp;&lt;b&gt;&lt;font&gt;int&lt;/font&gt;&lt;/b&gt;" style="text;strokeColor=none;fillColor=none;align=left;verticalAlign=middle;spacingLeft=4;spacingRight=4;overflow=hidden;points=[[0,0.5],[1,0.5]];portConstraint=eastwest;rotatable=0;whiteSpace=wrap;html=1;" parent="ZcthXnaWJmEX7Fqt3ZfZ-24" vertex="1">
          <mxGeometry y="30" width="140" height="30" as="geometry" />
        </mxCell>
        <mxCell id="ZcthXnaWJmEX7Fqt3ZfZ-26" value="- name&amp;nbsp;&lt;b style=&quot;color: rgb(255, 0, 0);&quot;&gt;string&lt;/b&gt;" style="text;strokeColor=none;fillColor=none;align=left;verticalAlign=middle;spacingLeft=4;spacingRight=4;overflow=hidden;points=[[0,0.5],[1,0.5]];portConstraint=eastwest;rotatable=0;whiteSpace=wrap;html=1;" parent="ZcthXnaWJmEX7Fqt3ZfZ-24" vertex="1">
          <mxGeometry y="60" width="140" height="30" as="geometry" />
        </mxCell>
        <mxCell id="ZcthXnaWJmEX7Fqt3ZfZ-32" value="+ associatedOffers" style="text;strokeColor=none;fillColor=#0000FF;align=left;verticalAlign=middle;spacingLeft=4;spacingRight=4;overflow=hidden;points=[[0,0.5],[1,0.5]];portConstraint=eastwest;rotatable=0;whiteSpace=wrap;html=1;" parent="ZcthXnaWJmEX7Fqt3ZfZ-24" vertex="1">
          <mxGeometry y="90" width="140" height="30" as="geometry" />
        </mxCell>
        <mxCell id="ZcthXnaWJmEX7Fqt3ZfZ-27" value="" style="endArrow=none;dashed=1;html=1;rounded=0;exitX=0.5;exitY=0;exitDx=0;exitDy=0;" parent="1" source="ZcthXnaWJmEX7Fqt3ZfZ-24" target="H3dzLe5ufF6b7okT9OPx-7" edge="1">
          <mxGeometry width="50" height="50" relative="1" as="geometry">
            <mxPoint x="540" y="820" as="sourcePoint" />
            <mxPoint x="720" y="760" as="targetPoint" />
          </mxGeometry>
        </mxCell>
        <mxCell id="ZcthXnaWJmEX7Fqt3ZfZ-28" value="&lt;font style=&quot;font-size: 6px;&quot;&gt;1.n&lt;/font&gt;" style="text;html=1;align=center;verticalAlign=middle;whiteSpace=wrap;rounded=0;" parent="1" vertex="1">
          <mxGeometry x="348" y="730" width="30" height="30" as="geometry" />
        </mxCell>
        <mxCell id="ZcthXnaWJmEX7Fqt3ZfZ-29" value="&lt;font style=&quot;font-size: 6px;&quot;&gt;1.n&lt;/font&gt;" style="text;html=1;align=center;verticalAlign=middle;whiteSpace=wrap;rounded=0;" parent="1" vertex="1">
          <mxGeometry x="591" y="787" width="30" height="30" as="geometry" />
        </mxCell>
      </root>
    </mxGraphModel>
  </diagram>
</mxfile>
